<svg width="196" height="44" viewBox="0 0 196 44" fill="none" xmlns="http://www.w3.org/2000/svg">
<path d="M26.9696 38.9069C25.3792 40.6744 23.1637 42.067 20.5505 42.7672C17.9373 43.4674 15.3223 43.3692 13.0612 42.6337L15.5138 37.8718C16.6444 38.2396 17.9451 38.289 19.2564 37.9376C20.5677 37.5862 21.6694 36.8931 22.4646 36.0093L26.9696 38.9069ZM6.54118 36.1683L4.06092 26.9118L9.77147 25.3816L12.2517 34.6381C12.5489 35.7471 13.2601 36.6454 14.2182 37.2615L10.4783 41.417C8.56212 40.1848 7.13337 38.3783 6.54118 36.1683ZM23.6728 31.5778L21.1926 22.3214L26.9031 20.7912L29.3834 30.0477C29.9756 32.2578 29.6415 34.5366 28.5981 36.5618L23.2815 34.833C23.8032 33.8204 23.97 32.6869 23.6728 31.5778ZM0.588346 13.952C-0.00384238 11.7419 0.330232 9.46302 1.37361 7.43789L6.69023 9.16665C6.16851 10.1793 6.00174 11.3128 6.2989 12.4218L8.77916 21.6783L3.06861 23.2084L0.588346 13.952ZM17.72 9.36155C17.4228 8.25254 16.7116 7.35423 15.7535 6.73816L19.4935 2.58269C21.4096 3.81482 22.8384 5.62133 23.4305 7.83141L25.9108 17.0879L20.2003 18.618L17.72 9.36155ZM9.42126 1.23243C12.0345 0.532223 14.6495 0.630496 16.9105 1.36601L14.4579 6.12788C13.3274 5.76009 12.0266 5.7107 10.7154 6.06206C9.40405 6.41342 8.3023 7.10655 7.50711 7.99034L3.00218 5.09273C4.59253 3.32524 6.80806 1.93263 9.42126 1.23243Z" fill="url(#paint0_linear_2783_55)"/>
<path d="M54.6996 22.2318C54.6996 25.1118 54.1129 27.2985 52.9396 28.7918C51.7662 30.2638 49.7716 30.9998 46.9556 30.9998C45.3769 30.9998 43.9049 30.9465 42.5396 30.8398C41.1956 30.7118 40.0116 30.5625 38.9876 30.3918L38.8916 30.3278V9.17583H44.0116V17.5278H44.1396C44.4382 16.7598 44.9289 16.1412 45.6116 15.6718C46.3156 15.2025 47.3076 14.9678 48.5876 14.9678C52.6622 14.9678 54.6996 17.3892 54.6996 22.2318ZM44.0116 22.7758V26.5198C44.5236 26.6052 45.1209 26.6478 45.8036 26.6478C46.8062 26.6478 47.5849 26.5625 48.1396 26.3918C48.7156 26.1998 49.1209 25.8372 49.3556 25.3038C49.5902 24.7705 49.7076 24.0025 49.7076 22.9998C49.7076 21.7412 49.5262 20.8132 49.1636 20.2158C48.8009 19.6185 48.0542 19.3198 46.9236 19.3198C46.0702 19.3198 45.3662 19.5865 44.8116 20.1198C44.2782 20.6318 44.0116 21.5172 44.0116 22.7758Z" fill="#3F3F3F"/>
<path d="M62.5428 30.7118H57.4228V15.1278H61.5828L61.9988 18.3278H62.0948C62.2868 17.1332 62.7455 16.2798 63.4708 15.7678C64.1962 15.2345 65.2735 14.9678 66.7028 14.9678C67.2788 14.9678 67.8015 14.9998 68.2708 15.0638C68.7402 15.1065 69.1348 15.1492 69.4548 15.1918V20.1838L69.3908 20.2478C69.0495 20.1625 68.6548 20.0878 68.2068 20.0238C67.7802 19.9598 67.2895 19.9278 66.7348 19.9278C65.9455 19.9278 65.2308 20.0558 64.5908 20.3118C63.9722 20.5678 63.4815 21.0692 63.1188 21.8158C62.7775 22.5412 62.6068 23.6292 62.6068 25.0798L62.5428 30.7118Z" fill="#3F3F3F"/>
<path d="M77.6241 14.9678C79.6721 14.9678 81.3254 15.1812 82.5841 15.6078C83.8427 16.0345 84.7601 16.8238 85.3361 17.9758C85.9334 19.1065 86.2321 20.7492 86.2321 22.9038V30.7118H81.5921L81.4321 29.2398H81.3361C80.9307 29.7732 80.3014 30.1998 79.4481 30.5198C78.5947 30.8398 77.4854 30.9998 76.1201 30.9998C72.4294 30.9998 70.5841 29.2718 70.5841 25.8158C70.5841 24.3438 71.0641 23.1918 72.0241 22.3598C73.0054 21.5065 74.5414 21.0798 76.6321 21.0798H81.3681C81.2187 20.1838 80.8347 19.5865 80.2161 19.2878C79.5974 18.9678 78.5414 18.8078 77.0481 18.8078C76.1094 18.8078 75.1814 18.8825 74.2641 19.0318C73.3681 19.1598 72.5787 19.3092 71.8961 19.4798L71.8001 19.4158L71.8321 15.7038C72.2587 15.5758 72.8027 15.4585 73.4641 15.3518C74.1254 15.2238 74.8187 15.1278 75.5441 15.0638C76.2907 14.9998 76.9841 14.9678 77.6241 14.9678ZM77.4321 27.2238C78.7547 27.2238 79.7467 27.0638 80.4081 26.7438C81.0694 26.4025 81.4107 25.8692 81.4321 25.1438V24.3438H77.8161C76.8774 24.3438 76.2161 24.4825 75.8321 24.7598C75.4694 25.0158 75.2881 25.3678 75.2881 25.8158C75.2881 26.3492 75.4801 26.7225 75.8641 26.9358C76.2481 27.1278 76.7707 27.2238 77.4321 27.2238Z" fill="#3F3F3F"/>
<path d="M94.6991 30.7118H89.5791V15.1278H94.4431L94.6991 17.9758H94.7951C95.0937 17.0158 95.6271 16.2798 96.3951 15.7678C97.1631 15.2345 98.2297 14.9678 99.5951 14.9678C101.451 14.9678 102.816 15.4905 103.691 16.5358C104.587 17.5812 105.035 19.3945 105.035 21.9758V30.7118H99.9151L99.8831 22.9678C99.8831 21.7732 99.7017 20.9198 99.3391 20.4078C98.9764 19.8958 98.2937 19.6398 97.2911 19.6398C96.3524 19.6398 95.6911 19.8745 95.3071 20.3438C94.9231 20.7918 94.7204 21.5705 94.6991 22.6798V30.7118Z" fill="#3F3F3F"/>
<path d="M118.276 30.7118L118.084 28.4398H117.956C117.593 29.2932 117.07 29.9332 116.388 30.3598C115.726 30.7865 114.756 30.9998 113.476 30.9998C111.406 30.9998 109.892 30.4025 108.932 29.2078C107.972 27.9918 107.47 26.1678 107.428 23.7358C107.406 21.5598 107.63 19.8318 108.1 18.5518C108.569 17.2718 109.305 16.3545 110.308 15.7998C111.31 15.2452 112.59 14.9678 114.148 14.9678C114.958 14.9678 115.694 15.0425 116.356 15.1918C117.017 15.3198 117.55 15.5012 117.956 15.7358L118.02 15.7038V9.17583H123.14V30.7118H118.276ZM115.14 26.6478C115.993 26.6478 116.686 26.3812 117.22 25.8478C117.753 25.3145 118.02 24.4292 118.02 23.1918V19.8318C117.23 19.5118 116.302 19.3518 115.236 19.3518C114.233 19.3518 113.508 19.5972 113.06 20.0878C112.633 20.5572 112.42 21.5172 112.42 22.9678C112.42 24.2052 112.59 25.1332 112.932 25.7518C113.294 26.3492 114.03 26.6478 115.14 26.6478Z" fill="#3F3F3F"/>
<path d="M139.113 26.1998V30.3598C138.58 30.5732 137.791 30.7332 136.745 30.8398C135.7 30.9465 134.591 30.9998 133.417 30.9998C131.732 30.9998 130.324 30.7652 129.193 30.2958C128.084 29.8265 127.252 29.0158 126.697 27.8638C126.164 26.7118 125.887 25.1118 125.865 23.0638C125.865 20.9518 126.153 19.3092 126.729 18.1358C127.327 16.9625 128.191 16.1412 129.321 15.6718C130.452 15.2025 131.807 14.9678 133.385 14.9678C134.324 14.9678 135.316 15.0318 136.361 15.1598C137.407 15.2878 138.26 15.4585 138.921 15.6718L138.953 19.9598L138.857 20.0238C138.217 19.8958 137.535 19.7998 136.809 19.7358C136.084 19.6718 135.369 19.6398 134.665 19.6398C133.236 19.6398 132.244 19.9065 131.689 20.4398C131.135 20.9732 130.857 21.8692 130.857 23.1278C130.857 24.0878 130.975 24.8025 131.209 25.2718C131.444 25.7412 131.839 26.0505 132.393 26.1998C132.948 26.3492 133.705 26.4238 134.665 26.4238C135.412 26.4238 136.127 26.3918 136.809 26.3278C137.492 26.2638 138.217 26.1892 138.985 26.1038L139.113 26.1998Z" fill="#3F3F3F"/>
<path d="M147.105 30.7118H141.985V15.1278H146.145L146.561 18.3278H146.657C146.849 17.1332 147.308 16.2798 148.033 15.7678C148.759 15.2345 149.836 14.9678 151.265 14.9678C151.841 14.9678 152.364 14.9998 152.833 15.0638C153.303 15.1065 153.697 15.1492 154.017 15.1918V20.1838L153.953 20.2478C153.612 20.1625 153.217 20.0878 152.769 20.0238C152.343 19.9598 151.852 19.9278 151.297 19.9278C150.508 19.9278 149.793 20.0558 149.153 20.3118C148.535 20.5678 148.044 21.0692 147.681 21.8158C147.34 22.5412 147.169 23.6292 147.169 25.0798L147.105 30.7118Z" fill="#3F3F3F"/>
<path d="M162.187 14.9678C164.235 14.9678 165.888 15.1812 167.147 15.6078C168.405 16.0345 169.323 16.8238 169.899 17.9758C170.496 19.1065 170.795 20.7492 170.795 22.9038V30.7118H166.155L165.995 29.2398H165.899C165.493 29.7732 164.864 30.1998 164.011 30.5198C163.157 30.8398 162.048 30.9998 160.683 30.9998C156.992 30.9998 155.147 29.2718 155.147 25.8158C155.147 24.3438 155.627 23.1918 156.587 22.3598C157.568 21.5065 159.104 21.0798 161.195 21.0798H165.931C165.781 20.1838 165.397 19.5865 164.779 19.2878C164.16 18.9678 163.104 18.8078 161.611 18.8078C160.672 18.8078 159.744 18.8825 158.827 19.0318C157.931 19.1598 157.141 19.3092 156.459 19.4798L156.363 19.4158L156.395 15.7038C156.821 15.5758 157.365 15.4585 158.027 15.3518C158.688 15.2238 159.381 15.1278 160.107 15.0638C160.853 14.9998 161.547 14.9678 162.187 14.9678ZM161.995 27.2238C163.317 27.2238 164.309 27.0638 164.971 26.7438C165.632 26.4025 165.973 25.8692 165.995 25.1438V24.3438H162.379C161.44 24.3438 160.779 24.4825 160.395 24.7598C160.032 25.0158 159.851 25.3678 159.851 25.8158C159.851 26.3492 160.043 26.7225 160.427 26.9358C160.811 27.1278 161.333 27.2238 161.995 27.2238Z" fill="#3F3F3F"/>
<path d="M172.862 19.2878V15.1278H175.134V14.3278C175.134 12.2158 175.624 10.7012 176.606 9.78383C177.587 8.84516 179.048 8.37583 180.99 8.37583C181.672 8.37583 182.302 8.43983 182.878 8.56783C183.454 8.6745 183.955 8.8025 184.382 8.95183V12.5358L184.286 12.5998C183.902 12.5572 183.518 12.5252 183.134 12.5038C182.75 12.4612 182.387 12.4398 182.046 12.4398C181.32 12.4398 180.808 12.5785 180.51 12.8558C180.232 13.1118 180.094 13.5172 180.094 14.0718V15.1278H184.382V19.2878H180.094V30.7118H175.134V19.2878H172.862Z" fill="#3F3F3F"/>
<path d="M187.274 26.0398V19.3198H185.354V15.1598H187.754L188.714 11.3518H192.394V15.1598H195.882V19.3198H192.394V24.9198C192.394 25.5172 192.469 25.9332 192.618 26.1678C192.767 26.3812 193.109 26.4878 193.642 26.4878C193.983 26.4878 194.346 26.4772 194.73 26.4558C195.114 26.4132 195.498 26.3705 195.882 26.3278L195.978 26.3918V30.5518C194.954 30.8505 193.599 30.9998 191.914 30.9998C190.229 30.9998 189.034 30.6158 188.33 29.8478C187.626 29.0798 187.274 27.8105 187.274 26.0398Z" fill="#3F3F3F"/>
<defs>
<linearGradient id="paint0_linear_2783_55" x1="98.1375" y1="0.757324" x2="98.1375" y2="43.2423" gradientUnits="userSpaceOnUse">
<stop stop-color="#4633B4"/>
<stop offset="1" stop-color="#08A0FF"/>
</linearGradient>
</defs>
</svg>
