<svg width="196" height="44" viewBox="0 0 196 44" fill="none" xmlns="http://www.w3.org/2000/svg">
<path d="M26.9696 38.9074C25.3792 40.6749 23.1637 42.0675 20.5505 42.7677C17.9373 43.4679 15.3223 43.3697 13.0612 42.6341L15.5138 37.8723C16.6444 38.2401 17.9451 38.2895 19.2564 37.9381C20.5677 37.5867 21.6694 36.8936 22.4646 36.0098L26.9696 38.9074ZM6.54118 36.1687L4.06092 26.9123L9.77147 25.3821L12.2517 34.6386C12.5489 35.7476 13.2601 36.6459 14.2182 37.262L10.4783 41.4175C8.56212 40.1853 7.13337 38.3788 6.54118 36.1687ZM23.6728 31.5783L21.1926 22.3219L26.9031 20.7917L29.3834 30.0482C29.9756 32.2583 29.6415 34.5371 28.5981 36.5623L23.2815 34.8335C23.8032 33.8209 23.97 32.6873 23.6728 31.5783ZM0.588346 13.9524C-0.00384238 11.7424 0.330232 9.46351 1.37361 7.43838L6.69023 9.16714C6.16851 10.1797 6.00174 11.3133 6.2989 12.4223L8.77916 21.6788L3.06861 23.2089L0.588346 13.9524ZM17.72 9.36204C17.4228 8.25302 16.7116 7.35472 15.7535 6.73864L19.4935 2.58318C21.4096 3.81531 22.8384 5.62182 23.4305 7.8319L25.9108 17.0884L20.2003 18.6185L17.72 9.36204ZM9.42126 1.23292C12.0345 0.532712 14.6495 0.630984 16.9105 1.36649L14.4579 6.12837C13.3274 5.76058 12.0266 5.71118 10.7154 6.06254C9.40405 6.41391 8.3023 7.10704 7.50711 7.99083L3.00218 5.09321C4.59253 3.32573 6.80806 1.93312 9.42126 1.23292Z" fill="url(#paint0_linear_2783_60)"/>
<path d="M54.6996 22.2323C54.6996 25.1123 54.1129 27.299 52.9396 28.7923C51.7662 30.2643 49.7716 31.0003 46.9556 31.0003C45.3769 31.0003 43.9049 30.947 42.5396 30.8403C41.1956 30.7123 40.0116 30.563 38.9876 30.3923L38.8916 30.3283V9.17632H44.0116V17.5283H44.1396C44.4382 16.7603 44.9289 16.1417 45.6116 15.6723C46.3156 15.203 47.3076 14.9683 48.5876 14.9683C52.6622 14.9683 54.6996 17.3897 54.6996 22.2323ZM44.0116 22.7763V26.5203C44.5236 26.6057 45.1209 26.6483 45.8036 26.6483C46.8062 26.6483 47.5849 26.563 48.1396 26.3923C48.7156 26.2003 49.1209 25.8377 49.3556 25.3043C49.5902 24.771 49.7076 24.003 49.7076 23.0003C49.7076 21.7417 49.5262 20.8137 49.1636 20.2163C48.8009 19.619 48.0542 19.3203 46.9236 19.3203C46.0702 19.3203 45.3662 19.587 44.8116 20.1203C44.2782 20.6323 44.0116 21.5177 44.0116 22.7763Z" fill="white"/>
<path d="M62.5428 30.7123H57.4228V15.1283H61.5828L61.9988 18.3283H62.0948C62.2868 17.1337 62.7455 16.2803 63.4708 15.7683C64.1962 15.235 65.2735 14.9683 66.7028 14.9683C67.2788 14.9683 67.8015 15.0003 68.2708 15.0643C68.7402 15.107 69.1348 15.1497 69.4548 15.1923V20.1843L69.3908 20.2483C69.0495 20.163 68.6548 20.0883 68.2068 20.0243C67.7802 19.9603 67.2895 19.9283 66.7348 19.9283C65.9455 19.9283 65.2308 20.0563 64.5908 20.3123C63.9722 20.5683 63.4815 21.0697 63.1188 21.8163C62.7775 22.5417 62.6068 23.6297 62.6068 25.0803L62.5428 30.7123Z" fill="white"/>
<path d="M77.6241 14.9683C79.6721 14.9683 81.3254 15.1817 82.5841 15.6083C83.8427 16.035 84.7601 16.8243 85.3361 17.9763C85.9334 19.107 86.2321 20.7497 86.2321 22.9043V30.7123H81.5921L81.4321 29.2403H81.3361C80.9307 29.7737 80.3014 30.2003 79.4481 30.5203C78.5947 30.8403 77.4854 31.0003 76.1201 31.0003C72.4294 31.0003 70.5841 29.2723 70.5841 25.8163C70.5841 24.3443 71.0641 23.1923 72.0241 22.3603C73.0054 21.507 74.5414 21.0803 76.6321 21.0803H81.3681C81.2187 20.1843 80.8347 19.587 80.2161 19.2883C79.5974 18.9683 78.5414 18.8083 77.0481 18.8083C76.1094 18.8083 75.1814 18.883 74.2641 19.0323C73.3681 19.1603 72.5787 19.3097 71.8961 19.4803L71.8001 19.4163L71.8321 15.7043C72.2587 15.5763 72.8027 15.459 73.4641 15.3523C74.1254 15.2243 74.8187 15.1283 75.5441 15.0643C76.2907 15.0003 76.9841 14.9683 77.6241 14.9683ZM77.4321 27.2243C78.7547 27.2243 79.7467 27.0643 80.4081 26.7443C81.0694 26.403 81.4107 25.8697 81.4321 25.1443V24.3443H77.8161C76.8774 24.3443 76.2161 24.483 75.8321 24.7603C75.4694 25.0163 75.2881 25.3683 75.2881 25.8163C75.2881 26.3497 75.4801 26.723 75.8641 26.9363C76.2481 27.1283 76.7707 27.2243 77.4321 27.2243Z" fill="white"/>
<path d="M94.6991 30.7123H89.5791V15.1283H94.4431L94.6991 17.9763H94.7951C95.0937 17.0163 95.6271 16.2803 96.3951 15.7683C97.1631 15.235 98.2297 14.9683 99.5951 14.9683C101.451 14.9683 102.816 15.491 103.691 16.5363C104.587 17.5817 105.035 19.395 105.035 21.9763V30.7123H99.9151L99.8831 22.9683C99.8831 21.7737 99.7017 20.9203 99.3391 20.4083C98.9764 19.8963 98.2937 19.6403 97.2911 19.6403C96.3524 19.6403 95.6911 19.875 95.3071 20.3443C94.9231 20.7923 94.7204 21.571 94.6991 22.6803V30.7123Z" fill="white"/>
<path d="M118.276 30.7123L118.084 28.4403H117.956C117.593 29.2937 117.07 29.9337 116.388 30.3603C115.726 30.787 114.756 31.0003 113.476 31.0003C111.406 31.0003 109.892 30.403 108.932 29.2083C107.972 27.9923 107.47 26.1683 107.428 23.7363C107.406 21.5603 107.63 19.8323 108.1 18.5523C108.569 17.2723 109.305 16.355 110.308 15.8003C111.31 15.2457 112.59 14.9683 114.148 14.9683C114.958 14.9683 115.694 15.043 116.356 15.1923C117.017 15.3203 117.55 15.5017 117.956 15.7363L118.02 15.7043V9.17632H123.14V30.7123H118.276ZM115.14 26.6483C115.993 26.6483 116.686 26.3817 117.22 25.8483C117.753 25.315 118.02 24.4297 118.02 23.1923V19.8323C117.23 19.5123 116.302 19.3523 115.236 19.3523C114.233 19.3523 113.508 19.5977 113.06 20.0883C112.633 20.5577 112.42 21.5177 112.42 22.9683C112.42 24.2057 112.59 25.1337 112.932 25.7523C113.294 26.3497 114.03 26.6483 115.14 26.6483Z" fill="white"/>
<path d="M139.113 26.2003V30.3603C138.58 30.5737 137.791 30.7337 136.745 30.8403C135.7 30.947 134.591 31.0003 133.417 31.0003C131.732 31.0003 130.324 30.7657 129.193 30.2963C128.084 29.827 127.252 29.0163 126.697 27.8643C126.164 26.7123 125.887 25.1123 125.865 23.0643C125.865 20.9523 126.153 19.3097 126.729 18.1363C127.327 16.963 128.191 16.1417 129.321 15.6723C130.452 15.203 131.807 14.9683 133.385 14.9683C134.324 14.9683 135.316 15.0323 136.361 15.1603C137.407 15.2883 138.26 15.459 138.921 15.6723L138.953 19.9603L138.857 20.0243C138.217 19.8963 137.535 19.8003 136.809 19.7363C136.084 19.6723 135.369 19.6403 134.665 19.6403C133.236 19.6403 132.244 19.907 131.689 20.4403C131.135 20.9737 130.857 21.8697 130.857 23.1283C130.857 24.0883 130.975 24.803 131.209 25.2723C131.444 25.7417 131.839 26.051 132.393 26.2003C132.948 26.3497 133.705 26.4243 134.665 26.4243C135.412 26.4243 136.127 26.3923 136.809 26.3283C137.492 26.2643 138.217 26.1897 138.985 26.1043L139.113 26.2003Z" fill="white"/>
<path d="M147.105 30.7123H141.985V15.1283H146.145L146.561 18.3283H146.657C146.849 17.1337 147.308 16.2803 148.033 15.7683C148.759 15.235 149.836 14.9683 151.265 14.9683C151.841 14.9683 152.364 15.0003 152.833 15.0643C153.303 15.107 153.697 15.1497 154.017 15.1923V20.1843L153.953 20.2483C153.612 20.163 153.217 20.0883 152.769 20.0243C152.343 19.9603 151.852 19.9283 151.297 19.9283C150.508 19.9283 149.793 20.0563 149.153 20.3123C148.535 20.5683 148.044 21.0697 147.681 21.8163C147.34 22.5417 147.169 23.6297 147.169 25.0803L147.105 30.7123Z" fill="white"/>
<path d="M162.187 14.9683C164.235 14.9683 165.888 15.1817 167.147 15.6083C168.405 16.035 169.323 16.8243 169.899 17.9763C170.496 19.107 170.795 20.7497 170.795 22.9043V30.7123H166.155L165.995 29.2403H165.899C165.493 29.7737 164.864 30.2003 164.011 30.5203C163.157 30.8403 162.048 31.0003 160.683 31.0003C156.992 31.0003 155.147 29.2723 155.147 25.8163C155.147 24.3443 155.627 23.1923 156.587 22.3603C157.568 21.507 159.104 21.0803 161.195 21.0803H165.931C165.781 20.1843 165.397 19.587 164.779 19.2883C164.16 18.9683 163.104 18.8083 161.611 18.8083C160.672 18.8083 159.744 18.883 158.827 19.0323C157.931 19.1603 157.141 19.3097 156.459 19.4803L156.363 19.4163L156.395 15.7043C156.821 15.5763 157.365 15.459 158.027 15.3523C158.688 15.2243 159.381 15.1283 160.107 15.0643C160.853 15.0003 161.547 14.9683 162.187 14.9683ZM161.995 27.2243C163.317 27.2243 164.309 27.0643 164.971 26.7443C165.632 26.403 165.973 25.8697 165.995 25.1443V24.3443H162.379C161.44 24.3443 160.779 24.483 160.395 24.7603C160.032 25.0163 159.851 25.3683 159.851 25.8163C159.851 26.3497 160.043 26.723 160.427 26.9363C160.811 27.1283 161.333 27.2243 161.995 27.2243Z" fill="white"/>
<path d="M172.862 19.2883V15.1283H175.134V14.3283C175.134 12.2163 175.624 10.7017 176.606 9.78432C177.587 8.84565 179.048 8.37632 180.99 8.37632C181.672 8.37632 182.302 8.44032 182.878 8.56832C183.454 8.67499 183.955 8.80299 184.382 8.95232V12.5363L184.286 12.6003C183.902 12.5577 183.518 12.5257 183.134 12.5043C182.75 12.4617 182.387 12.4403 182.046 12.4403C181.32 12.4403 180.808 12.579 180.51 12.8563C180.232 13.1123 180.094 13.5177 180.094 14.0723V15.1283H184.382V19.2883H180.094V30.7123H175.134V19.2883H172.862Z" fill="white"/>
<path d="M187.274 26.0403V19.3203H185.354V15.1603H187.754L188.714 11.3523H192.394V15.1603H195.882V19.3203H192.394V24.9203C192.394 25.5177 192.469 25.9337 192.618 26.1683C192.767 26.3817 193.109 26.4883 193.642 26.4883C193.983 26.4883 194.346 26.4777 194.73 26.4563C195.114 26.4137 195.498 26.371 195.882 26.3283L195.978 26.3923V30.5523C194.954 30.851 193.599 31.0003 191.914 31.0003C190.229 31.0003 189.034 30.6163 188.33 29.8483C187.626 29.0803 187.274 27.811 187.274 26.0403Z" fill="white"/>
<defs>
<linearGradient id="paint0_linear_2783_60" x1="98.1375" y1="0.757812" x2="98.1375" y2="43.2428" gradientUnits="userSpaceOnUse">
<stop stop-color="#4633B4"/>
<stop offset="1" stop-color="#08A0FF"/>
</linearGradient>
</defs>
</svg>
